<svg width="104" height="61" viewBox="0 0 104 61" fill="none" xmlns="http://www.w3.org/2000/svg">
<path d="M0.617 1.342H6.14C7.106 1.342 7.988 1.496 8.786 1.804C9.584 2.112 10.263 2.574 10.823 3.19C11.383 3.792 11.817 4.555 12.125 5.479C12.433 6.389 12.587 7.453 12.587 8.671C12.587 9.889 12.433 10.96 12.125 11.884C11.817 12.794 11.383 13.557 10.823 14.173C10.263 14.775 9.584 15.23 8.786 15.538C7.988 15.846 7.106 16 6.14 16H0.617V1.342ZM6.14 13.165C7.092 13.165 7.841 12.899 8.387 12.367C8.933 11.835 9.206 10.981 9.206 9.805V7.537C9.206 6.361 8.933 5.507 8.387 4.975C7.841 4.443 7.092 4.177 6.14 4.177H3.809V13.165H6.14ZM16.6456 3.799C16.0156 3.799 15.5536 3.659 15.2596 3.379C14.9796 3.085 14.8396 2.714 14.8396 2.266V1.804C14.8396 1.356 14.9796 0.992 15.2596 0.711999C15.5536 0.418 16.0156 0.271 16.6456 0.271C17.2756 0.271 17.7306 0.418 18.0106 0.711999C18.3046 0.992 18.4516 1.356 18.4516 1.804V2.266C18.4516 2.714 18.3046 3.085 18.0106 3.379C17.7306 3.659 17.2756 3.799 16.6456 3.799ZM15.0916 4.975H18.1996V16H15.0916V4.975ZM25.6994 16.252C24.8594 16.252 24.1104 16.119 23.4524 15.853C22.7944 15.573 22.2344 15.188 21.7724 14.698C21.3244 14.194 20.9814 13.585 20.7434 12.871C20.5194 12.157 20.4074 11.359 20.4074 10.477C20.4074 9.609 20.5194 8.825 20.7434 8.125C20.9674 7.411 21.2964 6.802 21.7304 6.298C22.1784 5.794 22.7244 5.409 23.3684 5.143C24.0124 4.863 24.7474 4.723 25.5734 4.723C26.4834 4.723 27.2604 4.877 27.9044 5.185C28.5624 5.493 29.0944 5.906 29.5004 6.424C29.9204 6.942 30.2214 7.544 30.4034 8.23C30.5994 8.902 30.6974 9.609 30.6974 10.351V11.275H23.6204V11.443C23.6204 12.171 23.8164 12.752 24.2084 13.186C24.6004 13.606 25.2164 13.816 26.0564 13.816C26.7004 13.816 27.2254 13.69 27.6314 13.438C28.0374 13.172 28.4154 12.857 28.7654 12.493L30.3194 14.425C29.8294 14.999 29.1854 15.447 28.3874 15.769C27.6034 16.091 26.7074 16.252 25.6994 16.252ZM25.6364 7.012C25.0064 7.012 24.5094 7.222 24.1454 7.642C23.7954 8.048 23.6204 8.594 23.6204 9.28V9.448H27.4844V9.259C27.4844 8.587 27.3304 8.048 27.0224 7.642C26.7284 7.222 26.2664 7.012 25.6364 7.012ZM36.7564 16C35.6784 16 34.8594 15.727 34.2994 15.181C33.7534 14.635 33.4804 13.837 33.4804 12.787V7.39H31.9264V4.975H32.7034C33.1234 4.975 33.4104 4.877 33.5644 4.681C33.7184 4.471 33.7954 4.177 33.7954 3.799V1.993H36.5884V4.975H38.7724V7.39H36.5884V13.585H38.6044V16H36.7564ZM49.0794 16C48.5194 16 48.0504 15.825 47.6724 15.475C47.3084 15.125 47.0774 14.656 46.9794 14.068H46.8534C46.6854 14.782 46.3144 15.328 45.7404 15.706C45.1664 16.07 44.4594 16.252 43.6194 16.252C42.5134 16.252 41.6664 15.958 41.0784 15.37C40.4904 14.782 40.1964 14.005 40.1964 13.039C40.1964 11.877 40.6164 11.016 41.4564 10.456C42.3104 9.882 43.4654 9.595 44.9214 9.595H46.6644V8.902C46.6644 8.37 46.5244 7.95 46.2444 7.642C45.9644 7.32 45.4954 7.159 44.8374 7.159C44.2214 7.159 43.7314 7.292 43.3674 7.558C43.0034 7.824 42.7024 8.125 42.4644 8.461L40.6164 6.823C41.0644 6.165 41.6244 5.654 42.2964 5.29C42.9824 4.912 43.9064 4.723 45.0684 4.723C46.6364 4.723 47.8124 5.066 48.5964 5.752C49.3804 6.438 49.7724 7.439 49.7724 8.755V13.585H50.8014V16H49.0794ZM44.7744 14.089C45.2924 14.089 45.7334 13.977 46.0974 13.753C46.4754 13.529 46.6644 13.165 46.6644 12.661V11.359H45.1524C43.9344 11.359 43.3254 11.772 43.3254 12.598V12.913C43.3254 13.319 43.4514 13.62 43.7034 13.816C43.9554 13.998 44.3124 14.089 44.7744 14.089ZM52.8875 16V4.975H55.9955V7.369H56.1005C56.1565 7.061 56.2545 6.767 56.3945 6.487C56.5345 6.193 56.7165 5.934 56.9405 5.71C57.1785 5.486 57.4585 5.311 57.7805 5.185C58.1025 5.045 58.4805 4.975 58.9145 4.975H59.4605V7.873H58.6835C57.7735 7.873 57.0945 7.992 56.6465 8.23C56.2125 8.468 55.9955 8.909 55.9955 9.553V16H52.8875ZM68.2623 4.975H71.1603L66.9183 17.701C66.6383 18.555 66.2393 19.185 65.7213 19.591C65.2173 19.997 64.4893 20.2 63.5373 20.2H61.6053V17.785H63.6843L64.0623 16.567L60.1983 4.975H63.2853L64.9023 10.12L65.7003 13.312H65.8263L66.6453 10.12L68.2623 4.975Z" fill="#3AAFB9"/>
<path d="M9.92 35.669H9.815C9.703 36.411 9.325 37.027 8.681 37.517C8.037 38.007 7.162 38.252 6.056 38.252C5.216 38.252 4.432 38.091 3.704 37.769C2.976 37.447 2.339 36.971 1.793 36.341C1.247 35.711 0.82 34.927 0.512 33.989C0.204 33.051 0.05 31.966 0.05 30.734C0.05 29.502 0.211 28.41 0.533 27.458C0.855 26.506 1.303 25.708 1.877 25.064C2.465 24.42 3.165 23.93 3.977 23.594C4.789 23.258 5.692 23.09 6.686 23.09C8.002 23.09 9.136 23.377 10.088 23.951C11.04 24.511 11.789 25.358 12.335 26.492L9.731 27.983C9.507 27.409 9.157 26.926 8.681 26.534C8.205 26.128 7.54 25.925 6.686 25.925C5.692 25.925 4.901 26.212 4.313 26.786C3.725 27.36 3.431 28.263 3.431 29.495V31.847C3.431 33.065 3.725 33.968 4.313 34.556C4.901 35.13 5.692 35.417 6.686 35.417C7.078 35.417 7.449 35.375 7.799 35.291C8.149 35.193 8.457 35.053 8.723 34.871C8.989 34.675 9.192 34.444 9.332 34.178C9.486 33.912 9.563 33.597 9.563 33.233V32.498H6.833V29.831H12.608V38H9.92V35.669ZM22.0528 36.152H21.9478C21.8498 36.432 21.7168 36.698 21.5488 36.95C21.3948 37.202 21.1918 37.426 20.9398 37.622C20.6878 37.818 20.3868 37.972 20.0368 38.084C19.7008 38.196 19.3088 38.252 18.8608 38.252C17.7268 38.252 16.8658 37.881 16.2778 37.139C15.7038 36.383 15.4168 35.305 15.4168 33.905V26.975H18.5248V33.632C18.5248 34.304 18.6438 34.822 18.8818 35.186C19.1198 35.55 19.5258 35.732 20.0998 35.732C20.3378 35.732 20.5758 35.697 20.8138 35.627C21.0518 35.557 21.2618 35.459 21.4438 35.333C21.6258 35.193 21.7728 35.025 21.8848 34.829C21.9968 34.633 22.0528 34.402 22.0528 34.136V26.975H25.1608V38H22.0528V36.152ZM29.6065 25.799C28.9765 25.799 28.5145 25.659 28.2205 25.379C27.9405 25.085 27.8005 24.714 27.8005 24.266V23.804C27.8005 23.356 27.9405 22.992 28.2205 22.712C28.5145 22.418 28.9765 22.271 29.6065 22.271C30.2365 22.271 30.6915 22.418 30.9715 22.712C31.2655 22.992 31.4125 23.356 31.4125 23.804V24.266C31.4125 24.714 31.2655 25.085 30.9715 25.379C30.6915 25.659 30.2365 25.799 29.6065 25.799ZM28.0525 26.975H31.1605V38H28.0525V26.975ZM40.8233 36.152H40.7183C40.6343 36.446 40.5013 36.726 40.3193 36.992C40.1373 37.244 39.9133 37.468 39.6473 37.664C39.3953 37.846 39.1013 37.986 38.7653 38.084C38.4433 38.196 38.1073 38.252 37.7573 38.252C36.3573 38.252 35.3003 37.762 34.5863 36.782C33.8723 35.788 33.5153 34.353 33.5153 32.477C33.5153 30.601 33.8723 29.173 34.5863 28.193C35.3003 27.213 36.3573 26.723 37.7573 26.723C38.4713 26.723 39.1013 26.919 39.6473 27.311C40.2073 27.703 40.5643 28.207 40.7183 28.823H40.8233V22.46H43.9313V38H40.8233V36.152ZM38.7863 35.732C39.3743 35.732 39.8573 35.592 40.2353 35.312C40.6273 35.018 40.8233 34.619 40.8233 34.115V30.86C40.8233 30.356 40.6273 29.964 40.2353 29.684C39.8573 29.39 39.3743 29.243 38.7863 29.243C38.1983 29.243 37.7083 29.453 37.3163 29.873C36.9383 30.279 36.7493 30.832 36.7493 31.532V33.443C36.7493 34.143 36.9383 34.703 37.3163 35.123C37.7083 35.529 38.1983 35.732 38.7863 35.732ZM51.4367 38.252C50.5967 38.252 49.8477 38.119 49.1897 37.853C48.5317 37.573 47.9717 37.188 47.5097 36.698C47.0617 36.194 46.7187 35.585 46.4807 34.871C46.2567 34.157 46.1447 33.359 46.1447 32.477C46.1447 31.609 46.2567 30.825 46.4807 30.125C46.7047 29.411 47.0337 28.802 47.4677 28.298C47.9157 27.794 48.4617 27.409 49.1057 27.143C49.7497 26.863 50.4847 26.723 51.3107 26.723C52.2207 26.723 52.9977 26.877 53.6417 27.185C54.2997 27.493 54.8317 27.906 55.2377 28.424C55.6577 28.942 55.9587 29.544 56.1407 30.23C56.3367 30.902 56.4347 31.609 56.4347 32.351V33.275H49.3577V33.443C49.3577 34.171 49.5537 34.752 49.9457 35.186C50.3377 35.606 50.9537 35.816 51.7937 35.816C52.4377 35.816 52.9627 35.69 53.3687 35.438C53.7747 35.172 54.1527 34.857 54.5027 34.493L56.0567 36.425C55.5667 36.999 54.9227 37.447 54.1247 37.769C53.3407 38.091 52.4447 38.252 51.4367 38.252ZM51.3737 29.012C50.7437 29.012 50.2467 29.222 49.8827 29.642C49.5327 30.048 49.3577 30.594 49.3577 31.28V31.448H53.2217V31.259C53.2217 30.587 53.0677 30.048 52.7597 29.642C52.4657 29.222 52.0037 29.012 51.3737 29.012ZM61.7167 38C60.6527 38 59.8687 37.741 59.3647 37.223C58.8747 36.705 58.6297 35.956 58.6297 34.976V22.46H61.7377V35.585H63.1237V38H61.7167ZM66.5411 25.799C65.9111 25.799 65.4491 25.659 65.1551 25.379C64.8751 25.085 64.7351 24.714 64.7351 24.266V23.804C64.7351 23.356 64.8751 22.992 65.1551 22.712C65.4491 22.418 65.9111 22.271 66.5411 22.271C67.1711 22.271 67.6261 22.418 67.9061 22.712C68.2001 22.992 68.3471 23.356 68.3471 23.804V24.266C68.3471 24.714 68.2001 25.085 67.9061 25.379C67.6261 25.659 67.1711 25.799 66.5411 25.799ZM64.9871 26.975H68.0951V38H64.9871V26.975ZM70.9959 38V26.975H74.1039V28.844H74.2299C74.4259 28.27 74.7689 27.773 75.2589 27.353C75.7489 26.933 76.4279 26.723 77.2959 26.723C78.4299 26.723 79.2839 27.101 79.8579 27.857C80.4459 28.613 80.7399 29.691 80.7399 31.091V38H77.6319V31.343C77.6319 30.629 77.5199 30.104 77.2959 29.768C77.0719 29.418 76.6729 29.243 76.0989 29.243C75.8469 29.243 75.6019 29.278 75.3639 29.348C75.1259 29.404 74.9089 29.502 74.7129 29.642C74.5309 29.782 74.3839 29.957 74.2719 30.167C74.1599 30.363 74.1039 30.594 74.1039 30.86V38H70.9959ZM88.1046 38.252C87.2646 38.252 86.5156 38.119 85.8576 37.853C85.1996 37.573 84.6396 37.188 84.1776 36.698C83.7296 36.194 83.3866 35.585 83.1486 34.871C82.9246 34.157 82.8126 33.359 82.8126 32.477C82.8126 31.609 82.9246 30.825 83.1486 30.125C83.3726 29.411 83.7016 28.802 84.1356 28.298C84.5836 27.794 85.1296 27.409 85.7736 27.143C86.4176 26.863 87.1526 26.723 87.9786 26.723C88.8886 26.723 89.6656 26.877 90.3096 27.185C90.9676 27.493 91.4996 27.906 91.9056 28.424C92.3256 28.942 92.6266 29.544 92.8086 30.23C93.0046 30.902 93.1026 31.609 93.1026 32.351V33.275H86.0256V33.443C86.0256 34.171 86.2216 34.752 86.6136 35.186C87.0056 35.606 87.6216 35.816 88.4616 35.816C89.1056 35.816 89.6306 35.69 90.0366 35.438C90.4426 35.172 90.8206 34.857 91.1706 34.493L92.7246 36.425C92.2346 36.999 91.5906 37.447 90.7926 37.769C90.0086 38.091 89.1126 38.252 88.1046 38.252ZM88.0416 29.012C87.4116 29.012 86.9146 29.222 86.5506 29.642C86.2006 30.048 86.0256 30.594 86.0256 31.28V31.448H89.8896V31.259C89.8896 30.587 89.7356 30.048 89.4276 29.642C89.1336 29.222 88.6716 29.012 88.0416 29.012ZM99.0356 38.252C97.9716 38.252 97.0756 38.084 96.3476 37.748C95.6196 37.398 94.9686 36.908 94.3946 36.278L96.2216 34.43C96.6136 34.864 97.0476 35.207 97.5236 35.459C97.9996 35.711 98.5386 35.837 99.1406 35.837C99.7566 35.837 100.184 35.746 100.422 35.564C100.66 35.368 100.779 35.109 100.779 34.787C100.779 34.269 100.408 33.961 99.6656 33.863L98.4686 33.716C95.9906 33.408 94.7516 32.274 94.7516 30.314C94.7516 29.782 94.8496 29.299 95.0456 28.865C95.2556 28.417 95.5426 28.039 95.9066 27.731C96.2846 27.409 96.7326 27.164 97.2506 26.996C97.7826 26.814 98.3776 26.723 99.0356 26.723C99.6096 26.723 100.114 26.765 100.548 26.849C100.996 26.919 101.388 27.031 101.724 27.185C102.074 27.325 102.389 27.507 102.669 27.731C102.963 27.941 103.25 28.179 103.53 28.445L101.745 30.272C101.395 29.922 100.996 29.649 100.548 29.453C100.114 29.243 99.6656 29.138 99.2036 29.138C98.6716 29.138 98.2936 29.222 98.0696 29.39C97.8456 29.558 97.7336 29.782 97.7336 30.062C97.7336 30.356 97.8106 30.587 97.9646 30.755C98.1326 30.909 98.4406 31.021 98.8886 31.091L100.128 31.259C102.55 31.581 103.761 32.687 103.761 34.577C103.761 35.109 103.649 35.599 103.425 36.047C103.201 36.495 102.879 36.887 102.459 37.223C102.053 37.545 101.556 37.797 100.968 37.979C100.394 38.161 99.7496 38.252 99.0356 38.252ZM0.05 60V57.459H1.94V47.883H0.05V45.342H7.022V47.883H5.132V57.459H7.022V60H0.05ZM9.51345 60V48.975H12.6215V50.844H12.7475C12.9435 50.27 13.2865 49.773 13.7765 49.353C14.2665 48.933 14.9455 48.723 15.8135 48.723C16.9475 48.723 17.8015 49.101 18.3755 49.857C18.9635 50.613 19.2575 51.691 19.2575 53.091V60H16.1495V53.343C16.1495 52.629 16.0375 52.104 15.8135 51.768C15.5895 51.418 15.1905 51.243 14.6165 51.243C14.3645 51.243 14.1195 51.278 13.8815 51.348C13.6435 51.404 13.4265 51.502 13.2305 51.642C13.0485 51.782 12.9015 51.957 12.7895 52.167C12.6775 52.363 12.6215 52.594 12.6215 52.86V60H9.51345ZM23.5772 47.799C22.9472 47.799 22.4852 47.659 22.1912 47.379C21.9112 47.085 21.7712 46.714 21.7712 46.266V45.804C21.7712 45.356 21.9112 44.992 22.1912 44.712C22.4852 44.418 22.9472 44.271 23.5772 44.271C24.2072 44.271 24.6622 44.418 24.9422 44.712C25.2362 44.992 25.3832 45.356 25.3832 45.804V46.266C25.3832 46.714 25.2362 47.085 24.9422 47.379C24.6622 47.659 24.2072 47.799 23.5772 47.799ZM22.0232 48.975H25.1312V60H22.0232V48.975ZM31.896 60C30.818 60 29.999 59.727 29.439 59.181C28.893 58.635 28.62 57.837 28.62 56.787V51.39H27.066V48.975H27.843C28.263 48.975 28.55 48.877 28.704 48.681C28.858 48.471 28.935 48.177 28.935 47.799V45.993H31.728V48.975H33.912V51.39H31.728V57.585H33.744V60H31.896ZM37.6251 47.799C36.9951 47.799 36.5331 47.659 36.2391 47.379C35.9591 47.085 35.8191 46.714 35.8191 46.266V45.804C35.8191 45.356 35.9591 44.992 36.2391 44.712C36.5331 44.418 36.9951 44.271 37.6251 44.271C38.2551 44.271 38.7101 44.418 38.9901 44.712C39.2841 44.992 39.4311 45.356 39.4311 45.804V46.266C39.4311 46.714 39.2841 47.085 38.9901 47.379C38.7101 47.659 38.2551 47.799 37.6251 47.799ZM36.0711 48.975H39.1791V60H36.0711V48.975ZM50.2279 60C49.6679 60 49.1989 59.825 48.8209 59.475C48.4569 59.125 48.2259 58.656 48.1279 58.068H48.0019C47.8339 58.782 47.4629 59.328 46.8889 59.706C46.3149 60.07 45.6079 60.252 44.7679 60.252C43.6619 60.252 42.8149 59.958 42.2269 59.37C41.6389 58.782 41.3449 58.005 41.3449 57.039C41.3449 55.877 41.7649 55.016 42.6049 54.456C43.4589 53.882 44.6139 53.595 46.0699 53.595H47.8129V52.902C47.8129 52.37 47.6729 51.95 47.3929 51.642C47.1129 51.32 46.6439 51.159 45.9859 51.159C45.3699 51.159 44.8799 51.292 44.5159 51.558C44.1519 51.824 43.8509 52.125 43.6129 52.461L41.7649 50.823C42.2129 50.165 42.7729 49.654 43.4449 49.29C44.1309 48.912 45.0549 48.723 46.2169 48.723C47.7849 48.723 48.9609 49.066 49.7449 49.752C50.5289 50.438 50.9209 51.439 50.9209 52.755V57.585H51.9499V60H50.2279ZM45.9229 58.089C46.4409 58.089 46.8819 57.977 47.2459 57.753C47.6239 57.529 47.8129 57.165 47.8129 56.661V55.359H46.3009C45.0829 55.359 44.4739 55.772 44.4739 56.598V56.913C44.4739 57.319 44.5999 57.62 44.8519 57.816C45.1039 57.998 45.4609 58.089 45.9229 58.089ZM57.7769 60C56.6989 60 55.8799 59.727 55.3199 59.181C54.7739 58.635 54.5009 57.837 54.5009 56.787V51.39H52.9469V48.975H53.7239C54.1439 48.975 54.4309 48.877 54.5849 48.681C54.7389 48.471 54.8159 48.177 54.8159 47.799V45.993H57.6089V48.975H59.7929V51.39H57.6089V57.585H59.6249V60H57.7769ZM63.5059 47.799C62.8759 47.799 62.4139 47.659 62.1199 47.379C61.8399 47.085 61.6999 46.714 61.6999 46.266V45.804C61.6999 45.356 61.8399 44.992 62.1199 44.712C62.4139 44.418 62.8759 44.271 63.5059 44.271C64.1359 44.271 64.5909 44.418 64.8709 44.712C65.1649 44.992 65.3119 45.356 65.3119 45.804V46.266C65.3119 46.714 65.1649 47.085 64.8709 47.379C64.5909 47.659 64.1359 47.799 63.5059 47.799ZM61.9519 48.975H65.0599V60H61.9519V48.975ZM70.3127 60L66.7007 48.975H69.7667L71.1317 53.427L72.1607 57.417H72.3287L73.3577 53.427L74.6807 48.975H77.6207L74.0087 60H70.3127ZM83.6955 60.252C82.8555 60.252 82.1065 60.119 81.4485 59.853C80.7905 59.573 80.2305 59.188 79.7685 58.698C79.3205 58.194 78.9775 57.585 78.7395 56.871C78.5155 56.157 78.4035 55.359 78.4035 54.477C78.4035 53.609 78.5155 52.825 78.7395 52.125C78.9635 51.411 79.2925 50.802 79.7265 50.298C80.1745 49.794 80.7205 49.409 81.3645 49.143C82.0085 48.863 82.7435 48.723 83.5695 48.723C84.4795 48.723 85.2565 48.877 85.9005 49.185C86.5585 49.493 87.0905 49.906 87.4965 50.424C87.9165 50.942 88.2175 51.544 88.3995 52.23C88.5955 52.902 88.6935 53.609 88.6935 54.351V55.275H81.6165V55.443C81.6165 56.171 81.8125 56.752 82.2045 57.186C82.5965 57.606 83.2125 57.816 84.0525 57.816C84.6965 57.816 85.2215 57.69 85.6275 57.438C86.0335 57.172 86.4115 56.857 86.7615 56.493L88.3155 58.425C87.8255 58.999 87.1815 59.447 86.3835 59.769C85.5995 60.091 84.7035 60.252 83.6955 60.252ZM83.6325 51.012C83.0025 51.012 82.5055 51.222 82.1415 51.642C81.7915 52.048 81.6165 52.594 81.6165 53.28V53.448H85.4805V53.259C85.4805 52.587 85.3265 52.048 85.0185 51.642C84.7245 51.222 84.2625 51.012 83.6325 51.012Z" fill="#2E294E"/>
</svg>
